<svg xmlns="http://www.w3.org/2000/svg" width="127.303" height="53.502" viewBox="0 0 127.303 53.502">
  <g id="allied-signal-1" opacity="0.5">
    <path id="Path_4834" data-name="Path 4834" d="M3.982,35.846A3.579,3.579,0,0,1,.4,33.865a3.364,3.364,0,0,1,.269-3.584L12.487,10.647h6.741l5.189-8.721A3.807,3.807,0,0,1,27.735,0a3.69,3.69,0,0,1,3.424,2.033L42.983,21.668l-3.21,5.887,5.351,8.934a3.566,3.566,0,0,1-3.371,5.243h-22.9l-3.477-5.885H3.982ZM120.776,48.632h-5.939l-.268-1.549a6.5,6.5,0,0,1-1.712,1.229,7.966,7.966,0,0,1-3.693.7,6.25,6.25,0,0,1-3.05-.7,3.886,3.886,0,0,1-2.031-3.585,4.8,4.8,0,0,1,.214-1.6c1.61-4.44,10-2.248,10-4.655,0-1.07-1.283-1.179-1.873-1.179-.8,0-1.872.162-1.979,1.393h-5.511c0-3.051,2.194-4.817,7.864-4.817,6.8,0,7.169,2.515,7.169,5.941v6.687a1.912,1.912,0,0,0,.75,1.819l.054.319ZM79.525,53.5c-3.8,0-5.932-1.126-6.9-2.621a4.136,4.136,0,0,1-.589-1.5h5.727a.837.837,0,0,0,.372.588,1.626,1.626,0,0,0,1.232.372c1.444,0,2.14-.534,2.246-2.031a3.27,3.27,0,0,0,.054-.75V46.387a5.469,5.469,0,0,1-4.121,1.551,5.977,5.977,0,0,1-5.991-4.814,8.317,8.317,0,0,1-.216-1.981c0-3.531,1.659-7.277,6.367-7.277a5.332,5.332,0,0,1,4.387,2.3V34.24h5.029V45.852a20.4,20.4,0,0,1-.161,2.461,6.732,6.732,0,0,1-.75,2.568c-.908,1.6-2.832,2.621-6.685,2.621ZM98.893,26.216H93.758V24.29a4.9,4.9,0,0,1-4.387,2.3A6.075,6.075,0,0,1,83.057,21.4a10.915,10.915,0,0,1-.215-2.085c0-4.816,2.675-7.865,6.1-7.865a5.059,5.059,0,0,1,4.28,1.819V6.474h5.672Zm-24.183-3.1a2.253,2.253,0,0,0,2.14-1.231h5.456c-1.015,3.531-4.6,4.708-7.97,4.708-3.8,0-6.931-1.811-7.865-5.189a8.447,8.447,0,0,1-.269-2.246c0-4.708,3.531-7.706,8.134-7.706,5.3,0,8.505,3.638,8.451,8.881H71.873a3.014,3.014,0,0,0,.215,1.07,2.773,2.773,0,0,0,2.622,1.713ZM59.782,10.006h5.725V5.939H59.782Zm4.977,22.416h5.673V28.356H64.759Z" transform="translate(0)"/>
    <path id="Path_4835" data-name="Path 4835" d="M12.718,9.478,1.323,28.415C.481,29.814.2,30.874.948,32.16a3.15,3.15,0,0,0,2.836,1.605H26.308L29.143,28.9H6.62L18.389,9.478H12.718Z" transform="translate(0.09 1.652)" fill="#fff"/>
    <path id="Path_4836" data-name="Path 4836" d="M16.911,39.034H38.9c1.766,0,2.6-.386,3.263-1.392a3.5,3.5,0,0,0-.053-3.584L30.447,14.852H25.1l11.663,19.26H13.914Zm57.728-23.86a2.574,2.574,0,0,0-2.514-2.462,2.368,2.368,0,0,0-2.675,2.462Z" transform="translate(2.425 2.215)" fill="#fff"/>
    <path id="Path_4837" data-name="Path 4837" d="M38.427,25.255H44.1V5.513H38.427V25.255Zm7.33,0h5.725V5.513H45.757Zm7.329,0H58.81V10.864H53.085Z" transform="translate(6.697 0.961)"/>
    <path id="Path_4838" data-name="Path 4838" d="M80.239,16.8c0-1.605-.534-3.317-2.408-3.317-1.927,0-2.408,1.819-2.408,3.424a4.626,4.626,0,0,0,.375,2.14,2,2,0,0,0,1.873,1.124A2.246,2.246,0,0,0,79.7,19.051,4.506,4.506,0,0,0,80.239,16.8Z" transform="translate(13.144 2.35)" fill="#fff"/>
    <path id="Path_4839" data-name="Path 4839" d="M103.535,44.345h5.725V24.6h-5.725Z" transform="translate(18.043 4.288)"/>
    <path id="Path_4840" data-name="Path 4840" d="M93.648,38.294c0,.75.7,1.229,1.819,1.229,1.659,0,2.424-1.121,2.514-2.673.018-.269,0-.588,0-.856a17.884,17.884,0,0,1-3,.856C94.188,37.081,93.648,37.438,93.648,38.294Z" transform="translate(16.32 6.273)" fill="#fff"/>
    <path id="Path_4841" data-name="Path 4841" d="M90.726,43.606H85v-7.6c0-1.444-.375-2.674-1.981-2.674-1.766,0-2.192,1.123-2.192,2.943v7.329H75.105V29.215h5.189v2.248a5.684,5.684,0,0,1,4.869-2.622c3.8,0,5.564,2.194,5.564,6.153Z" transform="translate(13.089 5.026)"/>
    <path id="Path_4842" data-name="Path 4842" d="M70.237,35.406c0-1.6-.589-3.074-2.408-3.1-1.712-.025-2.246,1.393-2.246,3.263a3.262,3.262,0,0,0,.534,1.928,2.175,2.175,0,0,0,1.712.856,2.015,2.015,0,0,0,1.873-.856,3.8,3.8,0,0,0,.535-2.088Z" transform="translate(11.429 5.629)" fill="#fff"/>
    <path id="Path_4843" data-name="Path 4843" d="M57.943,44.424h5.673V30.032H57.943ZM52.913,44.1a13.692,13.692,0,0,1-5.028.856A11.023,11.023,0,0,1,43.5,44.1c-2.461-1.07-4.387-3.532-4.387-5.777h6.206a1.957,1.957,0,0,0,1.07,1.55,3.754,3.754,0,0,0,1.819.481c1.658,0,2.688-.481,2.675-1.443-.041-2.944-11.288-.964-11.288-8.454,0-4.173,3.584-6.314,8.506-6.314,5.51,0,7.972,2.782,8.452,6.26H50.4a1.6,1.6,0,0,0-.91-1.337,3.422,3.422,0,0,0-1.658-.375c-1.444,0-2.087.427-2.087,1.124,0,2.943,11.343,1.124,11.343,8.293A5.909,5.909,0,0,1,52.913,44.1Z" transform="translate(6.816 4.208)"/>
    <path id="Path_4844" data-name="Path 4844" d="M37.16,34.663,25.442,15.4h6.636l-5.19-8.616L14.422,26l-2.729-5.779-5.3,8.72H28.975L25.6,34.663H37.16Z" transform="translate(1.115 1.183)" fill="#fff"/>
  </g>
</svg>
