<svg xmlns="http://www.w3.org/2000/svg" width="127.303" height="50.641" viewBox="0 0 127.303 50.641">
  <g id="allied-waste-45342" opacity="0.5">
    <path id="Path_4831" data-name="Path 4831" d="M8.5,112.063,45.972,69.3H62.059l12.633,34.875H58.065L51.585,84.2l-24.51,27.641L8.5,112.063ZM64.866,69.628l12.31,34.012L89.054,90.468,80.847,69.3ZM91.861,90.683l25.373-29.261h18.573L97.26,105.585l-5.4-14.9Z" transform="translate(-8.504 -61.422)" fill="#9c564b" fill-rule="evenodd"/>
    <path id="Path_4832" data-name="Path 4832" d="M122.793,67.236H27.882v43.406H123.44V67.236h-.648Zm-.54,1.188v41.031H29.07V68.424h93.182Z" transform="translate(-13.846 -63.025)" fill="#9c564b" fill-rule="evenodd"/>
    <path id="Path_4833" data-name="Path 4833" d="M48.155,106.841H66.187l-5.4-14.9-12.633,14.9ZM95.987,76.716l4.319-4.859h18.788l-17.384,18.9Z" transform="translate(-19.434 -64.298)" fill="#9c564b" fill-rule="evenodd"/>
  </g>
</svg>
