<svg xmlns="http://www.w3.org/2000/svg" width="127.303" height="30.69" viewBox="0 0 127.303 30.69">
  <g id="content-management" opacity="0.5">
    <path id="Path_4820" data-name="Path 4820" d="M39.194,90.539A15.345,15.345,0,1,1,23.849,75.194,15.345,15.345,0,0,1,39.194,90.539Z" transform="translate(-8.504 -75.194)" fill="#c6d158" fill-rule="evenodd"/>
    <path id="Path_4821" data-name="Path 4821" d="M25.067,85.684a6.073,6.073,0,1,1-6.073-6.073,6.073,6.073,0,0,1,6.073,6.073Z" transform="translate(-9.722 -76.411)" fill="#f1e45f" stroke="#c6d158" stroke-miterlimit="2.613" stroke-width="1.682" fill-rule="evenodd"/>
    <path id="Path_4822" data-name="Path 4822" d="M37.212,85.684A6.073,6.073,0,1,1,31.14,79.61a6.073,6.073,0,0,1,6.073,6.073ZM25.067,97.83a6.073,6.073,0,1,1-6.073-6.073A6.073,6.073,0,0,1,25.067,97.83Z" transform="translate(-9.721 -76.411)" fill="#f1e45f" stroke="#c6d158" stroke-miterlimit="2.613" stroke-width="1.682" fill-rule="evenodd"/>
    <path id="Path_4823" data-name="Path 4823" d="M41.835,102.452a6.073,6.073,0,1,1-6.073-6.073A6.073,6.073,0,0,1,41.835,102.452Z" transform="translate(-14.343 -81.034)" fill="#f1e45f" stroke="#c6d158" stroke-miterlimit="2.613" stroke-width="1.682" fill-rule="evenodd"/>
    <path id="Path_4824" data-name="Path 4824" d="M62.069,93.667c-4.279,0-7.259-3.147-7.259-7.6,0-5.2,3.565-7.595,7.049-7.595,3.147,0,5.372,2.182,5.372,3.231,0,.713-1.175,1.218-1.636,1.218-1.218,0-1.427-1.721-3.651-1.721-1.762,0-3.86,1.217-3.86,4.784,0,3.021,1.553,4.951,3.9,4.951,2.014,0,2.686-1.552,3.609-1.552.84,0,1.678.545,1.678,1.175C67.272,91.737,64.67,93.667,62.069,93.667ZM76,93.541c-4.616,0-7.134-3.483-7.134-7.343,0-5.161,3.693-7.511,7.049-7.511,4.7,0,7.217,3.566,7.217,7.427,0,4.323-2.852,7.427-7.133,7.427Zm-.168-2.35c2.686,0,4.363-1.972,4.363-5.078,0-2.853-1.636-5.035-4.2-5.035-2.392,0-4.2,1.72-4.2,4.993C71.8,89.094,73.482,91.191,75.832,91.191Zm17.56-3.923c.629,0,.84-.713.84-1.679V80.428c0-.881.335-1.342,1.176-1.342,1.131,0,1.384.293,1.384,1.72V91.8c0,.882-.335,1.343-1.594,1.343-1.091,0-1.636-.293-1.972-.881L89.49,85.967c-.167-.293-.587-.923-1.089-.923-.757,0-.883.713-.883,1.426V91.8c0,.882-.335,1.3-1.3,1.3-.924,0-1.259-.251-1.259-1.678V80.428c0-1.342.755-1.342,1.594-1.342,1.848,0,1.428-.167,5.246,6.463C92.721,87.184,92.973,87.268,93.392,87.268Zm16.261-6.986c0,1.007-.42,1.343-1.93,1.343-1.6,0-1.931.671-1.931,1.678v8.728c0,1.3-.587,1.594-1.763,1.594-1.133,0-1.762-.377-1.762-1.594v-8.77c0-1.008-.337-1.636-1.972-1.636-1.6,0-1.848-.377-1.848-1.3,0-.881.5-1.342,1.47-1.342H108.1C109.149,78.981,109.653,79.4,109.653,80.282Zm12.064-.21c0,.713-.419,1.09-1.259,1.09h-4.279a1.679,1.679,0,0,0,0,3.357H120q1.258,0,1.259,1.133c0,.713-.42,1.091-1.259,1.091h-3.818c-1.131,0-1.679.629-1.679,1.93v.588c0,1.133.672,1.678,1.805,1.678h4.784q1.258,0,1.259,1.133c0,.713-.546,1.091-1.594,1.091h-8.016c-.88,0-1.3-.419-1.3-1.468V80.3c0-.881.42-1.363,1.217-1.363h7.8q1.259,0,1.258,1.133Zm10.6,7.2c.629,0,.84-.713.84-1.679V80.428c0-.881.334-1.342,1.174-1.342,1.133,0,1.384.293,1.384,1.72V91.8c0,.882-.335,1.343-1.594,1.343-1.089,0-1.636-.293-1.972-.881l-3.733-6.295c-.168-.293-.587-.923-1.092-.923-.755,0-.882.713-.882,1.426V91.8c0,.882-.335,1.3-1.3,1.3-.924,0-1.259-.251-1.259-1.678V80.428c0-1.342.755-1.342,1.594-1.342,1.846,0,1.428-.167,5.246,6.463C131.639,87.184,131.893,87.268,132.312,87.268Zm16.259-6.986c0,1.007-.419,1.343-1.931,1.343-1.593,0-1.93.671-1.93,1.678v8.728c0,1.3-.587,1.594-1.763,1.594-1.131,0-1.762-.377-1.762-1.594v-8.77c0-1.008-.335-1.636-1.972-1.636-1.594,0-1.846-.377-1.846-1.3,0-.881.5-1.342,1.468-1.342h8.183c1.05,0,1.553.419,1.553,1.3Z" transform="translate(-21.268 -76.099)" fill-rule="evenodd"/>
    <path id="Path_4825" data-name="Path 4825" d="M58.964,103.135l1.219,5.016a.723.723,0,0,0,.694.637c.332,0,.582-.36.775-1.109l1.164-4.71c.111-.416.416-.61.97-.61h1.386c.442,0,.664.249.664.748V110.7c0,.443-.249.666-.748.666s-.748-.223-.748-.666v-4.156c0-1.026-.193-1.524-.554-1.524-.028,0-.471-.111-.748,1l-1.275,4.739c-.112.416-.417.611-.942.611a.821.821,0,0,1-.942-.694l-1.33-4.9c-.138-.5-.359-.775-.637-.775-.416,0-.61.5-.61,1.524V110.7c0,.416-.194.638-.554.638-.665,0-.86-.167-.86-.721v-7.593c0-.443.194-.665.609-.665h1.636c.249,0,.638.027.832.775Zm14.465,7.51c-.222-.416-.361-.582-.637-.693a4.027,4.027,0,0,0-1.275-.11H70.464c-.775,0-1,.055-1.5.887-.277.415-.416.638-1.025.638h-.556c-.637,0-.637-.471-.5-.887l2.854-7.7a1.033,1.033,0,0,1,.942-.8h.971a.951.951,0,0,1,.969.748l2.993,7.926c.195.5-.193.721-.637.721h-.663c-.333,0-.582-.194-.887-.721Zm-1.552-5.016c-.167-.61-.388-.8-.665-.8s-.5.25-.637.748l-.527,1.8a.833.833,0,0,0,.776,1.026h.721a.829.829,0,0,0,.831-1.081l-.5-1.69Zm10.378,1.884c.415,0,.555-.47.555-1.108V103c0-.582.221-.887.775-.887.748,0,.914.195.914,1.136v7.261c0,.582-.221.887-1.053.887-.72,0-1.08-.194-1.3-.582l-2.466-4.157c-.111-.194-.388-.61-.721-.61-.5,0-.582.472-.582.942v3.52c0,.582-.221.86-.858.86-.611,0-.832-.166-.832-1.109V103c0-.887.5-.887,1.053-.887,1.219,0,.942-.111,3.464,4.269C81.813,107.457,81.98,107.513,82.256,107.513Zm9.838,3.132c-.222-.416-.361-.582-.638-.693a4.027,4.027,0,0,0-1.275-.11H89.129c-.777,0-1,.055-1.5.887-.277.415-.416.638-1.026.638h-.555c-.637,0-.637-.471-.5-.887l2.855-7.7a1.032,1.032,0,0,1,.942-.8h.969a.953.953,0,0,1,.971.748l2.994,7.926c.193.5-.2.721-.638.721h-.665c-.332,0-.583-.194-.887-.721Zm-1.552-5.016c-.167-.61-.388-.8-.665-.8s-.5.25-.638.748l-.527,1.8a.834.834,0,0,0,.777,1.026h.72a.83.83,0,0,0,.832-1.081l-.5-1.69Zm11.444-1.234c-.61,0-.941-.97-2.548-.97-1.662,0-2.8,1.22-2.8,3.215,0,2.106,1,3.436,2.716,3.436,1.218,0,2.245-.8,2.245-1.5,0-.277-.112-.637-.972-.721-.719-.083-.941-.249-.941-.692,0-.471.3-.692.886-.692h2.08c.5,0,.748.3.748.887v3.3a.642.642,0,0,1-.665.72c-.583,0-.916-.332-1.3-.332-.665,0-1.109.609-2.384.609-2.6,0-4.379-1.58-4.379-4.9,0-3.409,2.217-4.905,4.544-4.905,2.522,0,3.852,1.413,3.852,1.856C103.067,104.2,102.348,104.395,101.986,104.395Zm9.532-1.635c0,.471-.276.72-.829.72h-2.828a1.109,1.109,0,0,0,0,2.217h2.522q.832,0,.832.748c0,.47-.277.72-.832.72h-2.522c-.747,0-1.108.416-1.108,1.275v.388c0,.748.443,1.109,1.192,1.109H111.1q.832,0,.832.748c0,.47-.361.72-1.052.72h-5.294c-.582,0-.859-.277-.859-.97v-7.525c0-.582.277-.9.8-.9h5.155c.555,0,.83.251.83.75Zm4.631.374,1.218,5.016a.722.722,0,0,0,.693.637c.332,0,.582-.36.775-1.109l1.164-4.71c.11-.416.417-.61.971-.61h1.385q.664,0,.665.748V110.7c0,.443-.249.666-.748.666s-.747-.223-.747-.666v-4.156c0-1.026-.194-1.524-.555-1.524-.028,0-.471-.111-.748,1l-1.275,4.739c-.112.416-.416.611-.942.611a.822.822,0,0,1-.944-.694l-1.33-4.9c-.137-.5-.359-.775-.635-.775-.417,0-.611.5-.611,1.524V110.7c0,.416-.2.638-.553.638-.666,0-.861-.167-.861-.721v-7.593c0-.443.194-.665.61-.665h1.636c.25,0,.639.027.833.775Zm14.922-.374c0,.471-.277.72-.83.72h-2.826a1.109,1.109,0,0,0,0,2.217h2.522q.83,0,.83.748c0,.47-.277.72-.83.72h-2.522c-.748,0-1.109.416-1.109,1.275v.388c0,.748.444,1.109,1.192,1.109h3.159q.83,0,.83.748c0,.47-.359.72-1.052.72h-5.293c-.582,0-.861-.277-.861-.97v-7.525c0-.582.279-.9.8-.9h5.155q.831,0,.832.75Zm7,4.752c.414,0,.553-.47.553-1.108V103c0-.582.222-.887.777-.887.748,0,.914.195.914,1.136v7.261c0,.582-.221.887-1.052.887-.72,0-1.081-.194-1.3-.582l-2.467-4.157c-.11-.194-.388-.61-.72-.61-.5,0-.582.472-.582.942v3.52c0,.582-.222.86-.859.86-.61,0-.833-.166-.833-1.109V103c0-.887.5-.887,1.054-.887,1.22,0,.942-.111,3.463,4.269C137.625,107.457,137.792,107.513,138.07,107.513Zm10.738-4.613c0,.665-.276.887-1.275.887-1.052,0-1.275.443-1.275,1.108v5.764c0,.859-.389,1.052-1.164,1.052-.748,0-1.163-.25-1.163-1.052v-5.793c0-.665-.222-1.08-1.3-1.08-1.054,0-1.22-.25-1.22-.86,0-.582.332-.887.971-.887h5.4C148.475,102.039,148.807,102.318,148.807,102.9Z" transform="translate(-21.566 -82.541)" fill="#377084" fill-rule="evenodd"/>
  </g>
</svg>
