<svg xmlns="http://www.w3.org/2000/svg" width="51" height="51" viewBox="0 0 51 51">
  <g id="Email" transform="translate(-75 -140)">
    <rect id="Rectangle_29" data-name="Rectangle 29" width="51" height="51" rx="8" transform="translate(75 140)" fill="#fff"/>
    <g id="email_5_" data-name="email (5)" transform="translate(89 78)">
      <g id="Group_60" data-name="Group 60" transform="translate(14.89 82.847)">
        <g id="Group_59" data-name="Group 59">
          <path id="Path_53" data-name="Path 53" d="M339.392,149.886l7.573,4.787V144.9Z" transform="translate(-339.392 -144.896)"/>
        </g>
      </g>
      <g id="Group_62" data-name="Group 62" transform="translate(0 82.847)">
        <g id="Group_61" data-name="Group 61">
          <path id="Path_54" data-name="Path 54" d="M0,144.9v9.777l7.573-4.787Z" transform="translate(0 -144.896)"/>
        </g>
      </g>
      <g id="Group_64" data-name="Group 64" transform="translate(0.042 80)">
        <g id="Group_63" data-name="Group 63">
          <path id="Path_55" data-name="Path 55" d="M21.977,80H2.322A1.387,1.387,0,0,0,.96,81.195l11.189,7.372,11.189-7.372A1.387,1.387,0,0,0,21.977,80Z" transform="translate(-0.96 -80)"/>
        </g>
      </g>
      <g id="Group_66" data-name="Group 66" transform="translate(0.045 88.683)">
        <g id="Group_65" data-name="Group 65">
          <path id="Path_56" data-name="Path 56" d="M14.583,277.921,12.6,279.23a.705.705,0,0,1-.772,0l-1.987-1.31L1.024,283.5a1.384,1.384,0,0,0,1.359,1.185H22.038A1.384,1.384,0,0,0,23.4,283.5Z" transform="translate(-1.024 -277.92)"/>
        </g>
      </g>
    </g>
  </g>
</svg>
