<svg xmlns="http://www.w3.org/2000/svg" width="127.303" height="58.724" viewBox="0 0 127.303 58.724">
  <g id="marriott-management-services" opacity="0.5">
    <path id="Path_4801" data-name="Path 4801" d="M108.713,96.66c-1.208-1.106-1.1-2.892-1.1-4.213V80.81c0-1.32-.285-1.856-.675-2.106h-5.042c.39.25.675.785.675,2.106V92.447c0,1.321-.106,3.107,1.1,4.213ZM95.36,83.131v9.317c0,1.321-.106,3.107,1.1,4.213H91.419c-1.208-1.106-1.1-2.892-1.1-4.213V80.81c0-1.32-.285-1.856-.675-2.106h5.042c.319,0,.533.535.64,1,.355-.393,2.592-2.749,5.931,0l-2.415,3.426c-.534-.464-2.274-1.392-3.48,0Zm34.948-10.494-5.042,2.035v3.677h-2.13l-.852,1.821h2.982V92.448c0,1.321-.106,3.107,1.1,4.213h5.044c-1.208-1.106-1.1-2.892-1.1-4.213V80.168h1.775l.853-1.821h-2.629V72.636Zm10.717,0-5.042,2.035v3.677h-1.989l-.852,1.821h2.841V92.448c0,1.321-.107,3.107,1.1,4.213h5.042c-1.207-1.106-1.1-2.892-1.1-4.213V80.168H142.8l.852-1.821h-2.627ZM83.314,83.131v9.317c0,1.321-.106,3.107,1.1,4.213H79.372c-1.207-1.106-1.1-2.892-1.1-4.213V80.81c0-1.32-.284-1.856-.675-2.106h5.042c.319,0,.532.535.64,1,.355-.393,2.592-2.749,5.931,0l-2.415,3.426C86.261,82.667,84.521,81.738,83.314,83.131Zm-6.939,9.317V83.631c0-4.355-2.806-5.478-5.114-5.426a10.108,10.108,0,0,0-5.042,1.142,3.535,3.535,0,0,0-1.847,2.035l-.532,2.855a10.039,10.039,0,0,1,5.575-2.927c.959-.036,1.917.356,1.917,1.071s-1.03,1.107-1.811,1.357c-6.285,2.106-7.209,4.248-7.351,7.1-.185,3.722,2.805,6.068,4.723,6.068s3.728-1.606,4.419-2.244a3.521,3.521,0,0,0,.907,1.995h5.256C76.267,95.554,76.374,93.768,76.374,92.447ZM115.68,78.455c-.852.356-3.09,1.392-3.764,1.785-1.775,1-2.414,2.142-2.414,4.5v4.712c0,2.188.355,3.855,1.775,5a16.946,16.946,0,0,0,2.77,1.928,4.01,4.01,0,0,0,4.3-.035,24.213,24.213,0,0,0,4.332-3.534c.924-1.249,1.136-4.57.214-9.21a4.208,4.208,0,0,0-1.244-2.5,23.573,23.573,0,0,0-2.627-2.142,2.984,2.984,0,0,0-3.339-.5Zm-25.672-5.19a2.922,2.922,0,0,1-2.2.971,9.173,9.173,0,0,1-7.766-4.3c1.339-.052,5.422-.23,6.168-5.049l3.794,8.375Zm5.669-3.511A9.385,9.385,0,0,0,97,65a9.226,9.226,0,0,0-7.628-9.105l6.3,13.862Zm-9.11-13.911a9.121,9.121,0,0,0-1.843.45l7.582,16.744a9.545,9.545,0,0,0,1.582-1.11Z" transform="translate(-23.295 -55.843)" fill-rule="evenodd"/>
    <path id="Path_4802" data-name="Path 4802" d="M69.131,57.822a9.283,9.283,0,0,0-3.918,9.752c2.5,1.432,6.2,1.146,6.908-3.173l-2.99-6.579ZM12.709,100.7c1.137,1.071,7.067,4.534,12.323-6.889L27.3,88.888l4.9,10.886h7.1l-3.231-7.1,1.7-3.819,4.936,10.923h7.138L38.278,74.289,32.383,77l4.226,9.246-1.74,3.748L27.518,73.753l-5.9,2.641,4.439,9.888L24.322,90.1c-.6,1.355-3.2,7.031-8.132,5.425l-3.48,5.176Zm119.969-4.789a2.805,2.805,0,1,0,2.783,2.8A2.8,2.8,0,0,0,132.678,95.914Z" transform="translate(-9.663 -56.389)" fill-rule="evenodd"/>
    <path id="Path_4803" data-name="Path 4803" d="M177.4,110.877a2.454,2.454,0,1,1-1.738.72A2.454,2.454,0,0,1,177.4,110.877Z" transform="translate(-54.383 -71.013)" fill="#fff" fill-rule="evenodd"/>
    <path id="Path_4804" data-name="Path 4804" d="M177.28,113.8h.7l.891,1.446h.453l-.942-1.446c.555-.015.986-.243.986-.861a.771.771,0,0,0-.351-.675,1.429,1.429,0,0,0-.76-.154H176.9v3.135h.379V113.8Z" transform="translate(-54.923 -71.354)" fill-rule="evenodd"/>
    <path id="Path_4805" data-name="Path 4805" d="M147.452,106.514h.891c.388,0,.811.058.811.543,0,.64-.679.566-1.118.566h-.585v-1.109ZM72.99,100.332a3.086,3.086,0,0,1-2.556,2.892c-.5,0-1.74.107-1.74-2.249,0-3.748,1.669-4.533,2.486-5.175,1.243-.572,1.811-.037,1.811.821v3.712Zm45.344-9.543c1.385,0,2.009,2.11,2.009,5.9s-.447,6.866-2.009,6.866c-1.848,0-2.009-3.074-2.009-6.866S116.949,90.789,118.334,90.789Z" transform="translate(-25.095 -65.476)" fill="#fff" fill-rule="evenodd"/>
    <path id="Path_4806" data-name="Path 4806" d="M8.857,120.059v1.219H135.807v-1.219Zm7.927,4.137c.3,2.865.627,5.719.939,7.932-.209-.012-.371-.034-.545-.034s-.372.022-.545.034c-.2-2.33-.429-4.836-.592-5.985C14.7,128.544,13.7,130.4,13.005,132h-.129l-.637-1.31c-.742-1.531-1.554-3.039-2.343-4.547-.256,2.262-.569,4.558-.569,5.985-.151-.012-.278-.034-.406-.034-.151,0-.278.022-.418.034.3-1.867,1-6.715,1.113-7.932h.3c.927,1.845,2.04,4.025,3.282,6.078,1.1-1.983,2.169-4,3.34-6.078Zm8.606,7.932c-.22-.012-.406-.034-.6-.034-.22,0-.417.022-.614.034q-.55-1.588-1.218-3.131H20.01c-.406,1.02-.824,2.041-1.148,3.131-.162-.012-.29-.034-.429-.034s-.279.022-.406.034l3.618-8.106h.267l3.48,8.106Z" transform="translate(-8.504 -73.544)" fill-rule="evenodd"/>
    <path id="Path_4807" data-name="Path 4807" d="M25.957,127.627l-1.264,2.97h2.551Z" transform="translate(-12.967 -75.63)" fill="#fff" fill-rule="evenodd"/>
    <path id="Path_4808" data-name="Path 4808" d="M39.763,133.636h-.348q-.29-.364-.6-.708l-5.01-5.543h-.117v6.25c-.116-.012-.22-.034-.325-.034a2.793,2.793,0,0,0-.325.034V125.7h.452L39,131.677h.116V125.7a2.793,2.793,0,0,0,.325.035c.1,0,.209-.024.325-.035Zm8.223,0c-.22-.012-.406-.034-.6-.034-.22,0-.417.022-.615.034q-.549-1.588-1.218-3.131H42.6c-.406,1.02-.824,2.041-1.147,3.131-.162-.012-.29-.034-.429-.034s-.279.022-.406.034l3.618-8.106h.267Z" transform="translate(-15.267 -75.052)" fill-rule="evenodd"/>
    <path id="Path_4809" data-name="Path 4809" d="M47.814,127.627,46.55,130.6H49.1Z" transform="translate(-18.991 -75.63)" fill="#fff" fill-rule="evenodd"/>
    <path id="Path_4810" data-name="Path 4810" d="M61.4,127.095a3.457,3.457,0,0,0-2.61-1.125c-1.972,0-3.34,1.3-3.34,3.641,0,2.3,1.183,3.722,3.468,3.722a3.969,3.969,0,0,0,1.809-.395V129.96c.162.012.336.034.511.034s.325-.022.51-.034v3.282a9.711,9.711,0,0,1-3.154.533c-2.934,0-4.279-1.751-4.279-4.106,0-2.713,1.948-4.141,4.523-4.141a5.671,5.671,0,0,1,2.958.674c-.105.29-.186.591-.267.892H61.4Zm2.783,2.064h1.8c.348,0,.685-.046,1.032-.058a2.387,2.387,0,0,0-.035.3c0,.093.023.2.035.325-.348-.013-.685-.058-1.032-.058h-1.8v3.386c.708.024,1.4-.022,2.1-.045a8.444,8.444,0,0,0,1.067-.105c-.012.127-.035.232-.035.348s.023.232.035.348H63.167v-7.9h4.117c-.012.127-.035.232-.035.348s.023.232.035.348a7.893,7.893,0,0,0-1.044-.128l-1.16-.024h-.893ZM76.262,125.7c.3,2.865.627,5.719.939,7.932-.209-.012-.371-.034-.545-.034s-.371.022-.545.034c-.2-2.33-.429-4.836-.591-5.985-1.345,2.4-2.343,4.257-3.039,5.857h-.127l-.637-1.31c-.742-1.531-1.554-3.039-2.343-4.547-.255,2.262-.568,4.558-.568,5.985-.151-.012-.279-.034-.406-.034-.151,0-.278.022-.417.034.3-1.867,1-6.715,1.113-7.932h.3c.928,1.845,2.041,4.025,3.282,6.078,1.1-1.983,2.169-4,3.339-6.078Zm3.11,3.456h1.8c.348,0,.684-.046,1.032-.058a2.389,2.389,0,0,0-.035.3c0,.093.023.2.035.325-.348-.013-.685-.058-1.032-.058h-1.8v3.386c.708.024,1.4-.022,2.1-.045a8.444,8.444,0,0,0,1.067-.105c-.012.127-.035.232-.035.348s.023.232.035.348H78.351v-7.9h4.117c-.012.127-.035.232-.035.348s.023.232.035.348a7.882,7.882,0,0,0-1.044-.127l-1.16-.024h-.892Zm11.169,4.476h-.348q-.29-.364-.6-.708l-5.01-5.543h-.116v6.25c-.116-.012-.22-.034-.325-.034a2.789,2.789,0,0,0-.325.034V125.7h.453l5.509,5.973h.116V125.7a2.785,2.785,0,0,0,.324.035c.105,0,.209-.024.325-.035Zm4.465.024c-.185-.013-.348-.035-.511-.035s-.348.022-.509.035v-7.4a21.916,21.916,0,0,0-2.541.138c.012-.116.035-.232.035-.348s-.024-.221-.035-.348H97.43c-.012.127-.034.232-.034.348s.022.232.034.348a20.252,20.252,0,0,0-2.424-.138v7.4Zm7.743-1.588a2.078,2.078,0,0,0,1.879,1.205,1.634,1.634,0,0,0,1.612-1.694c0-2.156-3.629-1.205-3.629-3.827,0-1.5,1.183-2.227,2.574-2.227a2.6,2.6,0,0,1,1.659.558,6.492,6.492,0,0,0-.314.95h-.116a1.485,1.485,0,0,0-1.437-1.009,1.37,1.37,0,0,0-1.462,1.357c0,2.133,3.653,1.275,3.653,3.746a2.642,2.642,0,0,1-2.863,2.644,2.993,2.993,0,0,1-1.891-.674,5.333,5.333,0,0,0,.221-1.031h.115Zm6.53-2.912h1.8c.348,0,.683-.046,1.031-.058a2.392,2.392,0,0,0-.034.3c0,.093.022.2.034.325-.348-.013-.683-.058-1.031-.058h-1.8v3.386c.708.024,1.4-.022,2.1-.045a8.444,8.444,0,0,0,1.067-.105c-.012.127-.035.232-.035.348s.024.232.035.348H108.26v-7.9h4.117c-.012.127-.035.232-.035.348s.024.232.035.348a7.893,7.893,0,0,0-1.044-.128l-1.16-.024h-.892v2.912Zm4.328-3.456h2.459c1.786,0,2.575.591,2.575,1.763,0,1.345-1.207,1.995-2.378,2.2l2.39,3.026.556.649.221.29c-.243-.012-.453-.034-.672-.034s-.453.022-.662.034q-.359-.509-.73-1.009L116,130.853l-.928-1.091h-.441v3.874c-.185-.012-.348-.034-.509-.034s-.348.022-.511.034V125.7h0Z" transform="translate(-21.133 -75.052)" fill-rule="evenodd"/>
    <path id="Path_4811" data-name="Path 4811" d="M137.578,129.541a6.451,6.451,0,0,0,1.5-.058,1.687,1.687,0,0,0,1.484-1.658,1.355,1.355,0,0,0-1.276-1.462,10.339,10.339,0,0,0-1.705-.012v3.189Z" transform="translate(-44.083 -75.271)" fill="#fff" fill-rule="evenodd"/>
    <path id="Path_4812" data-name="Path 4812" d="M149.394,127.825l.7-1.937.08-.185c.138.012.279.035.429.035.129,0,.267-.024.417-.035-.371.708-2.933,6.645-3.352,7.932a1.829,1.829,0,0,0-.232-.034,1.788,1.788,0,0,0-.243.034c-1.321-2.725-3.015-6.946-3.525-7.932.174.012.372.036.558.036s.359-.024.567-.036c.151.359.29.742.43,1.125l.777,2.03,1.426,3.515h.105c.221-.475.464-.928.649-1.4Zm2.367-2.122c.163.012.337.035.511.035s.325-.024.511-.035v7.932c-.185-.012-.348-.034-.511-.034s-.348.022-.511.034Zm8.744,7.41a4.675,4.675,0,0,1-2.563.662,3.815,3.815,0,0,1-4.083-4.152c0-2.609,1.925-4.094,4.373-4.094a6.387,6.387,0,0,1,2.492.533,4.831,4.831,0,0,0-.243.894l-.08.012a3.113,3.113,0,0,0-2.216-1c-2.133,0-3.189,1.728-3.189,3.7,0,2.227,1.275,3.653,3.108,3.653a4.055,4.055,0,0,0,2.458-.939Zm2.24-3.954h1.8c.348,0,.685-.046,1.033-.058a2.391,2.391,0,0,0-.034.3c0,.093.022.2.034.325-.348-.013-.685-.058-1.033-.058h-1.8v3.386c.708.024,1.4-.022,2.1-.045a8.444,8.444,0,0,0,1.067-.105c-.012.127-.035.232-.035.348s.024.232.035.348h-4.186v-7.9h4.117a3.454,3.454,0,0,0-.035.348,3.143,3.143,0,0,0,.035.348,7.893,7.893,0,0,0-1.044-.128l-1.16-.024h-.892v2.912Zm4.141,2.912a2.078,2.078,0,0,0,1.879,1.205,1.634,1.634,0,0,0,1.613-1.694c0-2.156-3.63-1.205-3.63-3.827,0-1.5,1.183-2.227,2.575-2.227a2.6,2.6,0,0,1,1.658.558,6.489,6.489,0,0,0-.313.95h-.116a1.487,1.487,0,0,0-1.439-1.009,1.369,1.369,0,0,0-1.46,1.357c0,2.133,3.653,1.275,3.653,3.746a2.643,2.643,0,0,1-2.865,2.644,2.986,2.986,0,0,1-1.89-.674,5.332,5.332,0,0,0,.221-1.031h.114Z" transform="translate(-45.761 -75.052)" fill-rule="evenodd"/>
  </g>
</svg>
