<svg xmlns="http://www.w3.org/2000/svg" width="127.302" height="38.273" viewBox="0 0 127.302 38.273">
  <g id="residential-management-services" opacity="0.5">
    <path id="Path_4814" data-name="Path 4814" d="M87.376,104.8c-.129-1.544-.965-2.156-2.072-2.156-.942,0-2.4.719-2.4,2.9,0,1.674.9,2.64,2.2,2.64a2.78,2.78,0,0,0,2.5-1.968l-.19-.082a2.148,2.148,0,0,1-1.825,1.236c-.778,0-1.732-.482-1.873-2.568l.036-.377c.188-1.037.648-1.354,1.3-1.354.931,0,1.048.79,1.131,1.354H83.748l-.036.377Zm25.8,0c-.129-1.544-.966-2.156-2.074-2.156-.942,0-2.4.719-2.4,2.9,0,1.674.9,2.64,2.2,2.64a2.776,2.776,0,0,0,2.5-1.968l-.188-.082a2.148,2.148,0,0,1-1.826,1.236c-.777,0-1.732-.482-1.873-2.568l.035-.377c.188-1.037.648-1.354,1.3-1.354.931,0,1.05.79,1.131,1.354h-2.428l-.035.377ZM90.9,91.937c0-.708,0-1.886-1.756-1.886-1.367,0-1.921.837-1.921,1.309a.514.514,0,0,0,.506.518.53.53,0,0,0,.53-.506c0-.106-.058-.283-.058-.46,0-.365.447-.577.836-.577.353,0,.907.13.907.978v.719C88.021,92.785,87,93.187,87,94.364a1.2,1.2,0,0,0,1.249,1.225,2.836,2.836,0,0,0,1.709-.861c.058.849.553.861.766.861.188,0,.553-.012,1.048-.588v-.307a.8.8,0,0,1-.53.225c-.341,0-.341-.343-.341-.683l-.955-.212c0,.352-.036.494-.4.671a1.916,1.916,0,0,1-.73.212.825.825,0,0,1-.778-.918v-.024c0-.4.13-1.06,1.909-1.649v1.709l.955.212v-2.3Zm40.941.256c-.13-1.544-.966-2.156-2.074-2.156-.942,0-2.4.719-2.4,2.9,0,1.673.9,2.639,2.2,2.639a2.778,2.778,0,0,0,2.5-1.968l-.188-.082a2.153,2.153,0,0,1-1.826,1.236c-.778,0-1.732-.482-1.873-2.568l.035-.377c.188-1.036.648-1.354,1.3-1.354.931,0,1.048.79,1.131,1.354h-2.427l-.035.377h3.664Zm-15.679,0c-.13-1.544-.966-2.156-2.074-2.156-.942,0-2.4.719-2.4,2.9,0,1.673.894,2.639,2.2,2.639a2.776,2.776,0,0,0,2.5-1.968l-.188-.082a2.153,2.153,0,0,1-1.826,1.236c-.778,0-1.732-.482-1.873-2.568l.035-.377c.188-1.036.648-1.354,1.3-1.354.931,0,1.048.79,1.131,1.354h-2.427l-.035.377h3.664Zm-5.891-12.549c-.13-1.544-.966-2.156-2.074-2.156-.942,0-2.4.719-2.4,2.9,0,1.673.9,2.639,2.2,2.639a2.775,2.775,0,0,0,2.5-1.968l-.188-.082a2.153,2.153,0,0,1-1.826,1.237c-.777,0-1.732-.483-1.873-2.569l.035-.377c.188-1.037.648-1.355,1.3-1.355.931,0,1.048.79,1.131,1.355h-2.427l-.035.377h3.664ZM77.822,75.968c0-.342.106-.424.73-.424.483,0,2.026.035,2.026,1.6,0,1.685-1.767,1.708-2.757,1.72v.406l.66.007,2.8,3.628h1.9v-.224a1.3,1.3,0,0,1-1.024-.553L79.728,79.15c.6-.118,2.133-.4,2.133-1.98,0-1.814-1.944-2.061-2.993-2.061H75.617v.224c.825.083,1,.188,1,1.06v5.1c0,.884-.047,1.131-1,1.19v.224H78.88v-.224c-.942-.047-1.06-.271-1.06-1.06V75.968ZM88.7,79.644c-.13-1.544-.966-2.156-2.074-2.156-.942,0-2.4.719-2.4,2.9,0,1.673.9,2.639,2.2,2.639a2.775,2.775,0,0,0,2.5-1.968l-.188-.082A2.153,2.153,0,0,1,86.9,82.213c-.778,0-1.732-.483-1.873-2.569l.035-.377c.188-1.037.648-1.355,1.3-1.355.931,0,1.048.79,1.131,1.355H85.066l-.036.377H88.7Zm4.641-.436c-.259-1.2-.79-1.449-1.307-1.449a.813.813,0,0,0-.9.766.925.925,0,0,0,.506.837l1.272.754c.577.353.99.683.99,1.39a1.612,1.612,0,0,1-1.709,1.52c-.529,0-1.037-.224-1.367-.212a.251.251,0,0,0-.259.141h-.153V81.117H90.6c.141.624.365,1.649,1.52,1.649a.857.857,0,0,0,.955-.86,1.013,1.013,0,0,0-.613-.872l-.683-.388c-.73-.413-1.379-.849-1.379-1.72a1.493,1.493,0,0,1,1.649-1.438,5.76,5.76,0,0,1,1.084.236.253.253,0,0,0,.2-.13h.13l.046,1.615h-.177Zm1.884,3.522c.73-.035.931-.106.931-1.025V78.973c0-.695-.224-.707-.411-.707a3.1,3.1,0,0,0-.472.047v-.177c.613-.2,1.214-.424,1.826-.648l.046.035v4.182c0,.777.059.978.873,1.025v.177H95.22v-.177Zm1.32-7.87a.6.6,0,0,1,.613.6.6.6,0,1,1-1.2,0A.6.6,0,0,1,96.541,74.861Zm7.41,0c-.564.2-1.2.365-1.793.518v.188a2.507,2.507,0,0,1,.283-.012c.518,0,.518.247.518.6v1.838a1.746,1.746,0,0,0-1.249-.507,2.755,2.755,0,0,0-2.437,2.9c0,2.4,1.683,2.639,2.143,2.639a1.709,1.709,0,0,0,1.52-.754h.024v.719l.046.035c.625-.224,1.167-.412,1.732-.613v-.189c-.788.059-.788-.177-.788-.659l-.99.141a1.03,1.03,0,0,1-1.048.707c-.778,0-1.625-.66-1.625-2.415,0-1.6.8-2.18,1.46-2.18A1.217,1.217,0,0,1,102.96,79v2.71l.99-.141Zm8.361,4.064c0-.742-.224-.754-.411-.754a.953.953,0,0,0-.343.047v-.2q.823-.236,1.627-.53l.082.024v.931a2.52,2.52,0,0,1,1.72-.955c.542,0,1.378.318,1.378,1.767v2.7c0,.553.141.73.719.777v.177h-2.45V82.73c.436-.035.742-.094.742-.989V79.278c0-.719-.212-1.143-.908-1.143a1.839,1.839,0,0,0-1.165.671v3.311c0,.389.164.577.777.613v.177h-2.5v-.177c.555-.035.73-.188.73-.884V78.925Zm8.6-.942h-1.19v3.37c0,.365,0,1.06.6,1.06a.932.932,0,0,0,.719-.412l.153.13a1.7,1.7,0,0,1-1.379.9c-.6,0-1.084-.318-1.084-1.5V77.983h-.624a.1.1,0,0,1-.048-.083c0-.141.26-.212.519-.471a8.927,8.927,0,0,0,1.061-1.343c.082,0,.082.059.082.153v1.367h1.19v.376Zm1.1,4.748c.732-.035.931-.106.931-1.025V78.973c0-.695-.224-.707-.411-.707a3.067,3.067,0,0,0-.471.047v-.177c.613-.2,1.213-.424,1.826-.648l.046.035v4.182c0,.777.058.978.871,1.025v.177h-2.792v-.177Zm1.32-7.87a.6.6,0,0,1,.613.6.6.6,0,1,1-1.2,0A.6.6,0,0,1,123.339,74.861Zm6.749,4.512c0-.707,0-1.885-1.756-1.885-1.367,0-1.921.837-1.921,1.308a.514.514,0,0,0,.508.518.531.531,0,0,0,.529-.507c0-.106-.058-.283-.058-.459,0-.365.447-.577.836-.577.353,0,.907.13.907.978v.719c-1.92.754-2.945,1.155-2.945,2.332a1.2,1.2,0,0,0,1.249,1.226,2.832,2.832,0,0,0,1.707-.861c.059.848.555.861.767.861.188,0,.553-.012,1.048-.589V82.13a.8.8,0,0,1-.53.224c-.341,0-.341-.342-.341-.683l-.955-.212c0,.353-.035.495-.4.671a1.931,1.931,0,0,1-.73.212.825.825,0,0,1-.778-.919V81.4c0-.4.129-1.06,1.909-1.649v1.708l.955.212v-2.3Zm1.788,3.358c.7-.047.908-.2.908-.848V76.263c0-.53-.071-.719-.53-.719-.153,0-.259.012-.4.023v-.188q.945-.226,1.873-.518l.046.023v7.033c0,.683.2.777.884.813v.177h-2.781ZM85.585,87.9c-.741.059-1.024.13-1.024,1.06v5.231c0,.908.27,1.013,1.024,1.061v.224h-3.3v-.224c.92-.048,1.072-.224,1.072-1.19V88.767h-.022l-2.994,6.7h-.164l-2.934-6.433H77.22v4.7c0,1.214.247,1.473,1.108,1.508v.224H75.559v-.224c.9-.059,1.143-.236,1.143-1.508V88.956c0-.919-.247-1.013-1.119-1.06v-.224h2.333l2.721,5.95,2.6-5.95h2.344Zm7.774,3.593c0-.741-.224-.753-.411-.753a.958.958,0,0,0-.343.046v-.2q.822-.235,1.625-.53l.083.024v.931a2.52,2.52,0,0,1,1.72-.955c.542,0,1.378.318,1.378,1.768v2.7c0,.555.141.732.719.778v.177H95.68v-.177c.436-.035.741-.095.741-.989V91.843c0-.719-.211-1.143-.907-1.143a1.838,1.838,0,0,0-1.165.672v3.31c0,.389.164.577.777.613v.177h-2.5V95.3c.553-.035.73-.188.73-.884V91.489Zm9.933.448c0-.708,0-1.886-1.756-1.886-1.367,0-1.921.837-1.921,1.309a.514.514,0,0,0,.508.518.53.53,0,0,0,.529-.506c0-.106-.058-.283-.058-.46,0-.365.447-.577.836-.577.353,0,.907.13.907.978v.719c-1.92.754-2.945,1.156-2.945,2.333a1.2,1.2,0,0,0,1.249,1.225,2.836,2.836,0,0,0,1.709-.861c.058.849.553.861.766.861.188,0,.553-.012,1.048-.588v-.307a.8.8,0,0,1-.53.225c-.341,0-.341-.343-.341-.683l-.955-.212c0,.352-.035.494-.4.671a1.916,1.916,0,0,1-.73.212.825.825,0,0,1-.778-.918v-.024c0-.4.13-1.06,1.909-1.649v1.709l.955.212v-2.3Zm3.026,3.522c-.318-.154-.624-.294-.624-.625,0-.2,0-.353,1.048-1.283a1.653,1.653,0,0,1-1.1-1.532,1.929,1.929,0,0,1,2.027-1.968l-.166.331c-.424,0-.884.27-.884,1.06,0,.931.307,1.979,1.225,1.979.8,0,.861-.871.861-1.131,0-.33-.188-1.909-1.2-1.909l.166-.331a2.92,2.92,0,0,1,1.142.272,1.751,1.751,0,0,0,.648.117h.908v.46h-.979a2.21,2.21,0,0,1,.224,1.084,1.814,1.814,0,0,1-1.872,1.732c-.141,0-.566-.059-.637-.059a1.168,1.168,0,0,0-.708.742c0,.272.566.307.92.318l1.52.071c1.26.059,1.426.931,1.426,1.26,0,1.331-1.956,1.992-3.016,1.992-1.2,0-2.085-.519-2.085-1.143,0-.53.553-1.013,1.154-1.437l.248.035c-.365.436-.577.683-.577,1.036s.424.837,1.767.837c1.378,0,2.179-.519,2.179-1.143,0-.53-.577-.553-1.449-.577a9.418,9.418,0,0,1-1.92-.153Zm11.944-3.971c0-.741-.224-.753-.411-.753a1.463,1.463,0,0,0-.377.046v-.2q.836-.23,1.649-.53l.083.024v.884a3.112,3.112,0,0,1,1.814-.908,1.234,1.234,0,0,1,1.26.99,2.729,2.729,0,0,1,1.9-.99c1.225,0,1.391,1.225,1.391,2.1v2.427c0,.259-.013.613.506.7l.306.022v.177H123.8v-.177c.59-.071.778-.095.778-.847V91.961c0-.6-.012-1.3-.861-1.3a1.472,1.472,0,0,0-1.307.719v2.97c0,.9.365.931.847.942v.177h-2.639v-.177c.53-.035.8-.071.8-.836V91.9c0-.778-.2-1.238-.812-1.238a1.708,1.708,0,0,0-1.355.7v3.322c0,.577.389.6.8.613v.177h-2.616V95.3c.471-.012.825-.035.825-.825V91.489h0Zm15.62,0c0-.741-.224-.753-.413-.753a.948.948,0,0,0-.341.046v-.2q.822-.235,1.625-.53l.082.024v.931a2.523,2.523,0,0,1,1.72-.955c.542,0,1.379.318,1.379,1.768v2.7c0,.555.141.732.719.778v.177H136.2v-.177c.436-.035.742-.095.742-.989V91.843c0-.719-.212-1.143-.907-1.143a1.844,1.844,0,0,0-1.167.672v3.31c0,.389.166.577.778.613v.177h-2.5V95.3c.555-.035.732-.188.732-.884V91.489h0Zm8.6-.942h-1.19v3.37c0,.365,0,1.06.6,1.06a.931.931,0,0,0,.719-.411l.153.129a1.7,1.7,0,0,1-1.378.9c-.6,0-1.084-.317-1.084-1.5V90.547h-.625a.1.1,0,0,1-.046-.082c0-.141.259-.212.518-.471a8.719,8.719,0,0,0,1.061-1.344c.082,0,.082.059.082.153v1.368h1.19v.375h0Zm-61.54,12.066h-.294a2.367,2.367,0,0,0-2.191-2.027,1.108,1.108,0,0,0-1.19,1.1c0,1.767,3.934,2,3.934,4.419a2.245,2.245,0,0,1-2.485,2.132,9.593,9.593,0,0,1-1.826-.4.364.364,0,0,0-.365.389h-.259l-.353-2.5h.271c.225.555.825,2.085,2.416,2.085a1.316,1.316,0,0,0,1.413-1.307c0-.672-.188-1.072-1.92-2.085-1.084-.624-1.838-1.143-1.838-2.309a1.992,1.992,0,0,1,2.132-2,9.407,9.407,0,0,1,1.638.4.409.409,0,0,0,.411-.4h.248Zm8.446,1.52c0-.695-.225-.708-.413-.708a1.76,1.76,0,0,0-.4.048v-.188q.882-.289,1.743-.637l.059.022v1.05H90.4c.553-.837.953-1.072,1.4-1.072a.588.588,0,0,1,.635.637.46.46,0,0,1-.447.518c-.411,0-.53-.413-.813-.413s-.8.59-.8.966v2.651c0,.813.4.861,1,.884v.177H88.552v-.177c.648-.119.837-.154.837-.813v-2.945h0Zm9.293-1.19c-.4.035-.482.224-.766.92l-1.508,3.782c-.13.318-.236.588-.318.588-.106,0-.129-.046-.318-.553-.282-.732-1.413-3.463-1.838-4.3a.691.691,0,0,0-.648-.436v-.177h2.309v.177c-.282.024-.542.059-.542.353a1.323,1.323,0,0,0,.106.411l1.2,3.016A31.444,31.444,0,0,0,97.6,103.33c0-.272-.259-.377-.553-.389v-.177h1.637v.178Zm.372,4.949c.73-.035.931-.106.931-1.026v-2.733c0-.695-.224-.708-.413-.708a3,3,0,0,0-.471.048V103.3c.613-.2,1.214-.424,1.826-.648l.046.035v4.182c0,.778.059.978.871,1.026v.177H99.052v-.176h0Zm1.32-7.87a.6.6,0,0,1,.613.6.6.6,0,0,1-1.2,0A.6.6,0,0,1,100.373,100.021Zm7.021,6.314c-.637,1.344-1.4,1.851-2.357,1.851a2.357,2.357,0,0,1-2.2-2.627,2.7,2.7,0,0,1,2.64-2.91,2.637,2.637,0,0,1,1.248.365,1.13,1.13,0,0,1,.506.825.519.519,0,0,1-.542.518c-.306.024-.506-.282-.577-.542l-.071-.259c-.093-.353-.153-.566-.777-.566-.438,0-1.521.367-1.521,2.1,0,1.354.813,2.249,1.8,2.249a1.95,1.95,0,0,0,1.683-1.108l.166.106Zm10.435-1.967c-.259-1.2-.79-1.45-1.307-1.45a.813.813,0,0,0-.9.767.925.925,0,0,0,.506.836l1.272.754c.577.353.99.683.99,1.389a1.613,1.613,0,0,1-1.709,1.521c-.529,0-1.037-.224-1.367-.212a.252.252,0,0,0-.259.141h-.153v-1.838h.188c.141.624.365,1.649,1.521,1.649a.857.857,0,0,0,.953-.861,1.011,1.011,0,0,0-.613-.873l-.683-.388c-.73-.413-1.379-.849-1.379-1.72a1.493,1.493,0,0,1,1.649-1.437,5.841,5.841,0,0,1,1.085.235.252.252,0,0,0,.2-.129h.13l.046,1.615h-.177Zm-66.9-32.016c.552,0,.859.307,1.289.8l13.317,16.63v17.857h2.577V89.228L54.124,71.739a3.75,3.75,0,0,0-6.382,0L33.75,89.228v18.41h2.577V89.781L49.644,73.15C50.074,72.659,50.38,72.352,50.933,72.352Z" transform="translate(-15.463 -69.959)" fill-rule="evenodd"/>
    <path id="Path_4815" data-name="Path 4815" d="M39.291,70.3,23.7,89.817v17.857H21.127V89.264L35.119,71.775C35.794,70.916,37.451,69.566,39.291,70.3Z" transform="translate(-11.984 -69.995)" fill-rule="evenodd"/>
    <path id="Path_4816" data-name="Path 4816" d="M39.291,70.3,23.7,89.817v17.857H21.127V89.264L35.119,71.775C35.794,70.916,37.451,69.566,39.291,70.3Z" transform="translate(-11.984 -69.995)" fill-rule="evenodd"/>
    <path id="Path_4817" data-name="Path 4817" d="M26.668,70.3,11.081,89.817v17.857H8.5V89.264L22.5,71.775C23.171,70.916,24.827,69.566,26.668,70.3Zm14.79,8.345,9.205,11.537v17.489H53.24V89.631l-7.609-9.511c-.675-.86-2.332-2.209-4.173-1.473Z" transform="translate(-8.504 -69.995)" fill-rule="evenodd"/>
    <path id="Path_4818" data-name="Path 4818" d="M48.068,87.076l6.873,8.715V112.3h2.578V95.238L52.241,88.55c-.675-.86-2.332-2.209-4.173-1.473Z" transform="translate(-19.41 -74.619)" fill-rule="evenodd"/>
  </g>
</svg>
