<svg xmlns="http://www.w3.org/2000/svg" width="135.517" height="31.249" viewBox="0 0 135.517 31.249">
  <g id="waste-management" opacity="0.5">
    <path id="Path_4827" data-name="Path 4827" d="M48.916,69.139H56.47L58.923,80.7h.064l3.422-11.557h8.716L74.482,80.7h.13L77,69.139h7.036L79.647,87.6H69.834L66.542,76.37h-.064L63.119,87.6H53.241L48.916,69.139Z" transform="translate(-15.537 -69.139)" fill="#186944" fill-rule="evenodd"/>
    <path id="Path_4828" data-name="Path 4828" d="M95.668,69.139h9.878L108.9,80.373h.065l3.292-11.234h9.814l4.39,18.529h-7.037l-2.39-11.557h-.128l-3.357,11.557h-8.716l-3.423-11.557h-.064L98.9,87.668H91.342Z" transform="translate(-27.231 -69.139)" fill="#dfb12e" fill-rule="evenodd"/>
    <path id="Path_4829" data-name="Path 4829" d="M2.834,103.649H5.353l.774,3.745h.065l1.1-3.745H10.13l1.1,3.745h.064l.775-3.745h2.324l-1.486,6.068H9.743l-1.1-3.743H8.581l-1.034,3.743H4.254Zm14.333,0h3.163l3.1,6.068H20.653l-.452-1.033H17.038l-.451,1.033H14.069Zm2.389,3.68-.9-2.066-.968,2.066h1.872Zm6.844.388a1.026,1.026,0,0,0,.258.774,1.8,1.8,0,0,0,.71.259c.516-.065,1.1-.194,1.1-.645,0-.13,0-.194-.129-.259-.322-.388-3.228-.71-4-1.42a1.375,1.375,0,0,1-.452-1.033c0-1.355,1.226-1.937,3.615-1.937,2.647,0,3.422.71,3.422,2H28.4a.754.754,0,0,0-.322-.71.793.793,0,0,0-.71-.13c-.516-.064-.84.194-.84.516a.488.488,0,0,0,.129.259c.388.322,3.163.645,4,1.355a1.261,1.261,0,0,1,.452,1.1c0,1.226-1.033,2-3.809,2-3.293,0-3.422-.969-3.486-2.13H26.4Zm7.166-2.584H31.629v-1.483H38.15v1.483h-2v4.584H33.566Zm5.294-1.483h5.811v1.226H41.314v1.162h3.164v1.226H41.314v1.163h3.422v1.291H38.86Zm10.523,0h3.874l1.227,4.067h.064l1.162-4.067h3.938v6.068H57.26v-4.584l-1.678,4.584H53.128l-1.549-4.584h-.064v4.584H49.383v-6.068Zm13.881,0h3.163l3.1,6.068H66.751l-.452-1.033H63.136l-.452,1.033H60.166Zm2.453,3.68-.968-2.066-.968,2.066Zm4.39-3.68h3.681l2.066,4.067v-4.067h2.259v6.068H74.5L72.3,105.392v4.325h-2.2v-6.068Zm11.622,0h3.163l3.1,6.068H85.15l-.451-1.033H81.6l-.451,1.033H78.63Zm2.388,3.68-.9-2.066-1.033,2.066Zm9.233-1.872a.666.666,0,0,0-.322-.453c-.13-.194-.453-.257-.839-.257a1.6,1.6,0,0,0-1.679,1.807c0,1.163.516,2,1.808,2a2.51,2.51,0,0,0,1.162-.194v-.9H92v-1.29h4v3.163a20.085,20.085,0,0,1-4.067.516c-3.034,0-4-1.357-4-3.1,0-2.324,1.615-3.292,4.261-3.292,2.259,0,3.809.451,3.809,2H93.351Zm4.067-1.808h5.811v1.226H99.871v1.162h3.1v1.226h-3.1v1.163h3.357v1.291H97.418Zm6.973,0h3.874l1.226,4.067h.064l1.228-4.067h3.874v6.068h-2.39v-4.584l-1.678,4.584h-2.455l-1.549-4.584h-.064v4.584h-2.13v-6.068Zm11.686,0h5.81v1.226H118.53v1.162h3.1v1.226h-3.1v1.163h3.357v1.291h-5.81Zm6.908,0h3.743l2.067,4.067v-4.067h2.26v6.068h-3.617l-2.194-4.325v4.325h-2.259v-6.068Zm10.846,1.483h-2v-1.483h6.521v1.483h-2v4.584h-2.518v-4.584Z" transform="translate(-2.834 -78.598)" fill="#186944" fill-rule="evenodd"/>
  </g>
</svg>
